<svg xmlns="http://www.w3.org/2000/svg" xmlns:xlink="http://www.w3.org/1999/xlink" width="1920" zoomAndPan="magnify" viewBox="0 0 1440 809.999993" height="1080" preserveAspectRatio="xMidYMid meet" version="1.0"><defs><g/><clipPath id="4749e5bf02"><rect x="0" width="1334" y="0" height="470"/></clipPath><clipPath id="bc555b06e3"><rect x="0" width="1296" y="0" height="638"/></clipPath><clipPath id="506421428f"><rect x="0" width="1440" y="0" height="810"/></clipPath></defs><g transform="matrix(1, 0, 0, 1, 0, 0.000000000000039746)"><g clip-path="url(#506421428f)"><g transform="matrix(1, 0, 0, 1, 0, 0.000000000000039746)"><g clip-path="url(#4749e5bf02)"><g fill="#efefef" fill-opacity="1"><g transform="translate(-26.330685, 303.202368)"><g><path d="M 137.40625 -143.953125 C 137.40625 -131.304688 140.457031 -119.53125 146.5625 -108.625 C 152.675781 -97.71875 160.859375 -88.882812 171.109375 -82.125 C 181.359375 -75.363281 193.03125 -71.984375 206.125 -71.984375 C 219.207031 -71.984375 230.875 -75.363281 241.125 -82.125 C 251.375 -88.882812 259.550781 -97.71875 265.65625 -108.625 C 271.769531 -119.53125 274.828125 -131.304688 274.828125 -143.953125 C 274.828125 -156.609375 271.769531 -168.390625 265.65625 -179.296875 C 259.550781 -190.203125 251.375 -199.035156 241.125 -205.796875 C 230.875 -212.554688 219.207031 -215.9375 206.125 -215.9375 C 193.03125 -215.9375 181.359375 -212.554688 171.109375 -205.796875 C 160.859375 -199.035156 152.675781 -190.203125 146.5625 -179.296875 C 140.457031 -168.390625 137.40625 -156.609375 137.40625 -143.953125 Z M 137.40625 163.59375 L 39.265625 163.59375 L 39.265625 -288.5625 L 137.40625 -288.5625 L 137.40625 -253.234375 C 150.0625 -268.929688 165.003906 -279.832031 182.234375 -285.9375 C 199.460938 -292.050781 217.457031 -295.109375 236.21875 -295.109375 C 263.695312 -295.109375 288.234375 -288.019531 309.828125 -273.84375 C 331.421875 -259.664062 348.429688 -241.125 360.859375 -218.21875 C 373.296875 -195.320312 379.515625 -170.566406 379.515625 -143.953125 C 379.515625 -117.347656 373.296875 -92.59375 360.859375 -69.6875 C 348.429688 -46.78125 331.421875 -28.347656 309.828125 -14.390625 C 288.234375 -0.429688 263.695312 6.546875 236.21875 6.546875 C 217.457031 6.546875 198.804688 3.382812 180.265625 -2.9375 C 161.734375 -9.269531 147.445312 -19.851562 137.40625 -34.6875 Z M 137.40625 163.59375 "/></g></g></g><g fill="#efefef" fill-opacity="1"><g transform="translate(370.83763, 303.202368)"><g><path d="M 202.1875 -215.9375 C 189.976562 -215.9375 178.960938 -212.335938 169.140625 -205.140625 C 159.328125 -197.941406 151.582031 -188.890625 145.90625 -177.984375 C 140.238281 -167.078125 137.40625 -155.734375 137.40625 -143.953125 L 137.40625 0 L 39.265625 0 L 39.265625 -288.5625 L 137.40625 -288.5625 L 137.40625 -253.234375 C 144.820312 -264.140625 154.851562 -273.84375 167.5 -282.34375 C 180.15625 -290.851562 195.425781 -295.109375 213.3125 -295.109375 C 217.675781 -295.109375 222.691406 -294.5625 228.359375 -293.46875 C 234.035156 -292.382812 238.835938 -290.75 242.765625 -288.5625 L 242.765625 -199.578125 L 241.453125 -199.578125 C 236.648438 -205.679688 230.757812 -209.929688 223.78125 -212.328125 C 216.800781 -214.734375 209.601562 -215.9375 202.1875 -215.9375 Z M 202.1875 -215.9375 "/></g></g></g><g fill="#efefef" fill-opacity="1"><g transform="translate(614.896502, 303.202368)"><g><path d="M 187.796875 -68.046875 C 205.242188 -68.046875 218.765625 -71.753906 228.359375 -79.171875 C 237.960938 -86.585938 244.726562 -96.078125 248.65625 -107.640625 C 252.582031 -119.203125 254.546875 -131.085938 254.546875 -143.296875 C 254.546875 -155.515625 252.472656 -167.296875 248.328125 -178.640625 C 244.179688 -189.984375 237.304688 -199.359375 227.703125 -206.765625 C 218.109375 -214.179688 204.804688 -217.890625 187.796875 -217.890625 C 170.785156 -217.890625 157.367188 -214.179688 147.546875 -206.765625 C 137.734375 -199.359375 130.753906 -189.984375 126.609375 -178.640625 C 122.472656 -167.296875 120.40625 -155.515625 120.40625 -143.296875 C 120.40625 -131.085938 122.363281 -119.203125 126.28125 -107.640625 C 130.207031 -96.078125 137.078125 -86.585938 146.890625 -79.171875 C 156.710938 -71.753906 170.347656 -68.046875 187.796875 -68.046875 Z M 187.796875 -294.453125 C 217.898438 -294.453125 245.382812 -288.125 270.25 -275.46875 C 295.113281 -262.820312 314.957031 -245.265625 329.78125 -222.796875 C 344.613281 -200.335938 352.03125 -174.054688 352.03125 -143.953125 C 352.03125 -113.421875 344.722656 -86.921875 330.109375 -64.453125 C 315.503906 -41.984375 295.765625 -24.640625 270.890625 -12.421875 C 246.023438 -0.210938 218.328125 5.890625 187.796875 5.890625 C 157.265625 5.890625 129.457031 -0.210938 104.375 -12.421875 C 79.289062 -24.640625 59.441406 -41.984375 44.828125 -64.453125 C 30.210938 -86.921875 22.90625 -113.421875 22.90625 -143.953125 C 22.90625 -174.054688 30.316406 -200.335938 45.140625 -222.796875 C 59.972656 -245.265625 79.929688 -262.820312 105.015625 -275.46875 C 130.097656 -288.125 157.691406 -294.453125 187.796875 -294.453125 Z M 187.796875 -294.453125 "/></g></g></g><g fill="#efefef" fill-opacity="1"><g transform="translate(984.583668, 303.202368)"><g><path d="M -3.921875 -287.90625 L 109.9375 -287.90625 L 166.859375 -199.578125 L 223.78125 -287.90625 L 337.640625 -287.90625 L 229.671875 -145.265625 L 346.796875 0 L 227.0625 0 L 166.859375 -88.984375 L 106.65625 0 L -13.09375 0 L 104.046875 -145.265625 Z M -3.921875 -287.90625 "/></g></g></g></g></g><g transform="matrix(1, 0, 0, 1, 144, 172)"><g clip-path="url(#bc555b06e3)"><g fill="#efefef" fill-opacity="1"><g transform="translate(0.7881, 621.42102)"><g><path d="M 265.015625 -143.953125 C 265.015625 -156.609375 261.957031 -168.390625 255.84375 -179.296875 C 249.738281 -190.203125 241.5625 -199.035156 231.3125 -205.796875 C 221.0625 -212.554688 209.390625 -215.9375 196.296875 -215.9375 C 183.210938 -215.9375 171.546875 -212.554688 161.296875 -205.796875 C 151.046875 -199.035156 142.863281 -190.203125 136.75 -179.296875 C 130.644531 -168.390625 127.59375 -156.609375 127.59375 -143.953125 C 127.59375 -131.304688 130.644531 -119.53125 136.75 -108.625 C 142.863281 -97.71875 151.046875 -88.882812 161.296875 -82.125 C 171.546875 -75.363281 183.210938 -71.984375 196.296875 -71.984375 C 209.390625 -71.984375 221.0625 -75.363281 231.3125 -82.125 C 241.5625 -88.882812 249.738281 -97.71875 255.84375 -108.625 C 261.957031 -119.53125 265.015625 -131.304688 265.015625 -143.953125 Z M 363.15625 -490.765625 L 363.15625 0 L 265.015625 0 L 265.015625 -34.6875 C 255.410156 -19.851562 241.117188 -9.269531 222.140625 -2.9375 C 203.171875 3.382812 184.523438 6.546875 166.203125 6.546875 C 139.160156 6.546875 114.734375 -0.429688 92.921875 -14.390625 C 71.109375 -28.347656 53.984375 -46.78125 41.546875 -69.6875 C 29.117188 -92.59375 22.90625 -117.347656 22.90625 -143.953125 C 22.90625 -170.566406 29.117188 -195.320312 41.546875 -218.21875 C 53.984375 -241.125 71.109375 -259.664062 92.921875 -273.84375 C 114.734375 -288.019531 139.160156 -295.109375 166.203125 -295.109375 C 184.523438 -295.109375 202.410156 -292.050781 219.859375 -285.9375 C 237.304688 -279.832031 252.359375 -268.929688 265.015625 -253.234375 L 265.015625 -490.765625 Z M 363.15625 -490.765625 "/></g></g></g><g fill="#efefef" fill-opacity="1"><g transform="translate(391.412948, 621.42102)"><g><path d="M 128.25 -178.640625 L 257.15625 -178.640625 C 257.15625 -178.640625 256.609375 -181.363281 255.515625 -186.8125 C 254.429688 -192.269531 251.816406 -198.488281 247.671875 -205.46875 C 243.523438 -212.445312 237.085938 -218.660156 228.359375 -224.109375 C 219.640625 -229.566406 207.863281 -232.296875 193.03125 -232.296875 C 177.757812 -232.296875 165.757812 -229.566406 157.03125 -224.109375 C 148.3125 -218.660156 141.878906 -212.445312 137.734375 -205.46875 C 133.585938 -198.488281 130.96875 -192.269531 129.875 -186.8125 C 128.789062 -181.363281 128.25 -178.640625 128.25 -178.640625 Z M 351.375 -150.5 C 351.375 -147.445312 351.265625 -144.394531 351.046875 -141.34375 C 350.835938 -138.289062 350.734375 -135.234375 350.734375 -132.171875 L 126.9375 -132.171875 C 126.9375 -121.265625 129.445312 -110.46875 134.46875 -99.78125 C 139.488281 -89.09375 146.6875 -80.367188 156.0625 -73.609375 C 165.4375 -66.847656 176.453125 -63.46875 189.109375 -63.46875 C 206.554688 -63.46875 220.296875 -68.15625 230.328125 -77.53125 C 240.359375 -86.914062 245.59375 -96.84375 246.03125 -107.3125 L 346.140625 -107.3125 C 337.859375 -69.363281 319.539062 -40.898438 291.1875 -21.921875 C 262.832031 -2.941406 229.457031 6.546875 191.0625 6.546875 C 157.914062 6.546875 128.691406 0.332031 103.390625 -12.09375 C 78.085938 -24.53125 58.347656 -41.984375 44.171875 -64.453125 C 29.992188 -86.921875 22.90625 -113.421875 22.90625 -143.953125 C 22.90625 -174.054688 30.210938 -200.445312 44.828125 -223.125 C 59.441406 -245.8125 79.394531 -263.476562 104.6875 -276.125 C 129.988281 -288.78125 158.78125 -295.109375 191.0625 -295.109375 C 220.289062 -295.109375 247.007812 -289.4375 271.21875 -278.09375 C 295.4375 -266.75 314.847656 -250.390625 329.453125 -229.015625 C 344.066406 -207.640625 351.375 -181.46875 351.375 -150.5 Z M 351.375 -150.5 "/></g></g></g><g fill="#efefef" fill-opacity="1"><g transform="translate(753.902313, 621.42102)"><g><path d="M 265.015625 -143.953125 C 265.015625 -156.609375 261.957031 -168.390625 255.84375 -179.296875 C 249.738281 -190.203125 241.5625 -199.035156 231.3125 -205.796875 C 221.0625 -212.554688 209.390625 -215.9375 196.296875 -215.9375 C 183.210938 -215.9375 171.546875 -212.554688 161.296875 -205.796875 C 151.046875 -199.035156 142.863281 -190.203125 136.75 -179.296875 C 130.644531 -168.390625 127.59375 -156.609375 127.59375 -143.953125 C 127.59375 -131.304688 130.644531 -119.53125 136.75 -108.625 C 142.863281 -97.71875 151.046875 -88.882812 161.296875 -82.125 C 171.546875 -75.363281 183.210938 -71.984375 196.296875 -71.984375 C 209.390625 -71.984375 221.0625 -75.363281 231.3125 -82.125 C 241.5625 -88.882812 249.738281 -97.71875 255.84375 -108.625 C 261.957031 -119.53125 265.015625 -131.304688 265.015625 -143.953125 Z M 363.15625 -287.90625 L 363.15625 0 L 265.015625 0 L 265.015625 -34.6875 C 255.410156 -19.851562 241.117188 -9.269531 222.140625 -2.9375 C 203.171875 3.382812 184.523438 6.546875 166.203125 6.546875 C 139.160156 6.546875 114.734375 -0.429688 92.921875 -14.390625 C 71.109375 -28.347656 53.984375 -46.78125 41.546875 -69.6875 C 29.117188 -92.59375 22.90625 -117.347656 22.90625 -143.953125 C 22.90625 -170.566406 29.117188 -195.320312 41.546875 -218.21875 C 53.984375 -241.125 71.109375 -259.664062 92.921875 -273.84375 C 114.734375 -288.019531 139.160156 -295.109375 166.203125 -295.109375 C 184.523438 -295.109375 202.410156 -292.050781 219.859375 -285.9375 C 237.304688 -279.832031 252.359375 -268.929688 265.015625 -253.234375 L 265.015625 -287.90625 Z M 363.15625 -287.90625 "/></g></g></g><g fill="#efefef" fill-opacity="1"><g transform="translate(1144.527161, 621.42102)"><g><path d="M 137.40625 0 L 39.265625 0 L 39.265625 -490.765625 L 137.40625 -490.765625 Z M 137.40625 0 "/></g></g></g></g></g></g></g></svg>